<?xml version="1.0" encoding="utf-8"?>
<!-- Generator: Adobe Illustrator 21.1.0, SVG Export Plug-In . SVG Version: 6.00 Build 0)  -->
<svg version="1.1" id="Layer_1" xmlns="http://www.w3.org/2000/svg" xmlns:xlink="http://www.w3.org/1999/xlink" x="0px" y="0px"
	 viewBox="0 0 1000 1000" style="enable-background:new 0 0 1000 1000;" xml:space="preserve">
<style type="text/css">
	.st0{fill:#FFFFFF;}
</style>
<g>
	<path class="st0" d="M500,3.8L70.3,252v496.2l429.7,248l429.7-248V252L500,3.8z M482.5,945.7l-110.6-63.9V687.8l-35-20.6v194.5
		l-99.7-57.6V608.9l-35-21.3v196.2l-97-55.9V292.2l377.2,217.8V945.7z M328.9,381L500,282.2L465,262l-171.1,98.9L122.8,262L500,44.2
		L877.2,262L500,479.9L328.9,381z M894.7,727.9l-171.1,98.9V629.1l-35,20.1v197.7l-171.1,98.9V510.1l171.1-98.9v197.7l35-20.1V391.1
		l171.1-98.9V727.9z"/>
</g>
<g>
	<g>
		<polygon class="st0" points="535,262 500,241.8 602.2,182.8 637.2,203 		"/>
	</g>
</g>
</svg>
